<svg width="60" height="60" viewBox="0 0 60 60" fill="none" xmlns="http://www.w3.org/2000/svg">
<path d="M29.9998 0.962158L22.2436 8.63342C21.8877 8.97342 21.7389 9.47806 21.8611 9.95619C21.9833 10.4343 22.3552 10.8062 22.8279 10.9337C23.3061 11.0612 23.8108 10.9178 24.1561 10.5672L28.6398 6.13654V20.4803C28.6345 20.969 28.8895 21.4259 29.3145 21.6756C29.7395 21.9199 30.2602 21.9199 30.6852 21.6756C31.1102 21.4259 31.3652 20.969 31.3598 20.4803V6.13654L35.8436 10.5672C36.1889 10.9178 36.6936 11.0612 37.1717 10.9337C37.6445 10.8062 38.0164 10.4343 38.1386 9.95619C38.2608 9.47806 38.112 8.97342 37.7561 8.63342L29.9998 0.962158ZM9.52544 21.8615C9.17481 21.8774 8.84016 22.0262 8.59579 22.2812L0.92981 30.0374L8.59579 37.7937C8.93579 38.1497 9.44043 38.2984 9.91856 38.1762C10.3967 38.054 10.7686 37.6822 10.8961 37.2093C11.0236 36.7312 10.8802 36.2265 10.5295 35.8812L6.09356 31.3974H20.4427C20.9314 31.4028 21.3883 31.1478 21.6379 30.7228C21.8823 30.2978 21.8823 29.7772 21.6379 29.3522C21.3883 28.9272 20.9314 28.6722 20.4427 28.6774H6.09356L10.5295 24.1937C10.9279 23.8006 11.0502 23.2003 10.827 22.6849C10.6039 22.1697 10.0886 21.8456 9.52544 21.8615ZM50.4317 21.8615C49.8792 21.8615 49.3798 22.1962 49.1673 22.7062C48.9548 23.2162 49.077 23.8059 49.4702 24.1937L53.9061 28.6774H39.557C39.0683 28.6722 38.6114 28.9272 38.3617 29.3522C38.1173 29.7772 38.1173 30.2978 38.3617 30.7228C38.6114 31.1478 39.0683 31.4028 39.557 31.3974H53.9061L49.4702 35.8812C49.1195 36.2265 48.9761 36.7312 49.1036 37.2093C49.2311 37.6822 49.6029 38.054 50.0811 38.1762C50.5592 38.2984 51.0639 38.1497 51.4039 37.7937L59.0752 30.0374L51.4039 22.2812C51.1489 22.0156 50.7983 21.8668 50.4317 21.8615ZM29.9786 38.2187C29.2295 38.2293 28.6292 38.8456 28.6398 39.5999V53.9437L24.1561 49.5078C23.9011 49.2474 23.5452 49.104 23.1786 49.104C22.6261 49.1093 22.1267 49.444 21.9248 49.9593C21.7177 50.4747 21.8452 51.059 22.2436 51.4415L29.9998 59.1128L37.7561 51.4415C38.112 51.1068 38.2608 50.5968 38.1386 50.124C38.0164 49.6459 37.6445 49.274 37.1717 49.1465C36.6936 49.019 36.1889 49.1572 35.8436 49.5078L31.3598 53.9437V39.5999C31.3652 39.2281 31.2217 38.8774 30.9614 38.6172C30.7011 38.3568 30.3452 38.2134 29.9786 38.2187Z" fill="white"/>
</svg>
