<svg width="64" height="64" viewBox="0 0 64 64" fill="none" xmlns="http://www.w3.org/2000/svg">
<path d="M46.96 0.720215C37.9606 0.720215 30.64 8.04084 30.64 17.0402C30.64 19.1015 31.0916 21.0511 31.7875 22.8627L2.67498 51.9752C0.0984131 54.5517 0.0984131 58.7486 2.67498 61.3252C5.25154 63.9017 9.44846 63.9017 12.025 61.3252L41.1375 32.2127C42.949 32.9086 44.8987 33.3602 46.96 33.3602C55.9594 33.3602 63.28 26.0396 63.28 17.0402C63.28 15.2499 62.9985 13.5446 62.4725 11.9402L61.75 9.81521L60.22 11.3877L50.7 20.8652L45.3025 18.6977L43.135 13.3002L52.6125 3.78021L54.185 2.25021L52.06 1.52771C50.4556 1.00177 48.7502 0.720215 46.96 0.720215ZM46.96 3.44021C47.6135 3.44021 48.2031 3.6474 48.83 3.73771L40.5425 11.9827L39.905 12.6202L42.965 20.2702L43.1775 20.8227L43.73 21.0352L51.38 24.0952L52.0175 23.4577L60.2625 15.1702C60.3527 15.7971 60.56 16.3867 60.56 17.0402C60.56 24.568 54.4877 30.6402 46.96 30.6402C44.9572 30.6402 43.0659 30.1886 41.35 29.4077L40.5 29.0252L10.1125 59.4127C8.57721 60.948 6.12279 60.948 4.58748 59.4127C3.05216 57.8774 3.05216 55.423 4.58748 53.8877L34.975 23.5002L34.5925 22.6502C33.8115 20.9342 33.36 19.043 33.36 17.0402C33.36 9.51236 39.4322 3.44021 46.96 3.44021Z" fill="white"/>
</svg>
