<svg width="68" height="68" viewBox="0 0 68 68" fill="none" xmlns="http://www.w3.org/2000/svg">
<path d="M30.8975 0.425049L28.9425 2.29505L33.15 6.80005H18.4875C12.0435 6.80005 6.79999 12.0435 6.79999 18.4875V23.6726H9.51999V18.4875C9.51999 13.5098 13.5097 9.52005 18.4875 9.52005H33.15L28.9425 14.025L30.8975 15.8951L37.315 9.09505L38.165 8.16005L37.315 7.22505L30.8975 0.425049ZM44.3275 6.80005V9.52005H49.5125C54.4903 9.52005 58.48 13.5098 58.48 18.4875V33.1501L53.975 28.9425L52.105 30.8975L58.905 37.3151L59.84 38.1651L60.775 37.3151L67.575 30.8975L65.705 28.9425L61.2 33.1501V18.4875C61.2 12.0435 55.9566 6.80005 49.5125 6.80005H44.3275ZM8.15999 29.835L7.22499 30.685L0.424988 37.1026L2.29499 39.0576L6.79999 34.85V49.5126C6.79999 55.9567 12.0435 61.2001 18.4875 61.2001H23.6725V58.4801H18.4875C13.5097 58.4801 9.51999 54.4904 9.51999 49.5126V34.85L14.025 39.0576L15.895 37.1026L9.09499 30.685L8.15999 29.835ZM58.48 44.3276V49.5126C58.48 54.4904 54.4903 58.4801 49.5125 58.4801H34.85L39.0575 53.9751L37.1025 52.105L30.685 58.9051L29.835 59.8401L30.685 60.7751L37.1025 67.5751L39.0575 65.7051L34.85 61.2001H49.5125C55.9566 61.2001 61.2 55.9567 61.2 49.5126V44.3276H58.48Z" fill="white"/>
</svg>
