<svg width="56" height="61" viewBox="0 0 56 61" fill="none" xmlns="http://www.w3.org/2000/svg">
<path d="M36.8029 0.720215L27.49 8.88021H0.800049V60.5602H28.5048L38.88 51.6617V0.720215H36.8029ZM36.16 4.90115V50.4186L27.4953 57.8402H3.52005V11.6002H28.51L36.16 4.90115ZM41.6 8.88021C40.851 8.88021 40.24 9.49111 40.24 10.2402C40.24 10.9892 40.851 11.6002 41.6 11.6002C42.3491 11.6002 42.96 10.9892 42.96 10.2402C42.96 9.49111 42.3491 8.88021 41.6 8.88021ZM45.68 8.88021C44.931 8.88021 44.32 9.49111 44.32 10.2402C44.32 10.9892 44.931 11.6002 45.68 11.6002C46.4291 11.6002 47.04 10.9892 47.04 10.2402C47.04 9.49111 46.4291 8.88021 45.68 8.88021ZM49.76 8.88021C49.011 8.88021 48.4 9.49111 48.4 10.2402C48.4 10.9892 49.011 11.6002 49.76 11.6002C50.5092 11.6002 51.12 10.9892 51.12 10.2402C51.12 9.49111 50.5092 8.88021 49.76 8.88021ZM53.84 8.88021C53.091 8.88021 52.48 9.49111 52.48 10.2402C52.48 10.9892 53.091 11.6002 53.84 11.6002C54.5891 11.6002 55.2 10.9892 55.2 10.2402C55.2 9.49111 54.5891 8.88021 53.84 8.88021ZM26.64 12.9602C25.891 12.9602 25.28 13.5711 25.28 14.3202C25.28 15.0692 25.891 15.6802 26.64 15.6802C27.3891 15.6802 28 15.0692 28 14.3202C28 13.5711 27.3891 12.9602 26.64 12.9602ZM53.84 12.9602C53.091 12.9602 52.48 13.5711 52.48 14.3202C52.48 15.0692 53.091 15.6802 53.84 15.6802C54.5891 15.6802 55.2 15.0692 55.2 14.3202C55.2 13.5711 54.5891 12.9602 53.84 12.9602ZM26.64 17.0402C25.891 17.0402 25.28 17.6511 25.28 18.4002C25.28 19.1492 25.891 19.7602 26.64 19.7602C27.3891 19.7602 28 19.1492 28 18.4002C28 17.6511 27.3891 17.0402 26.64 17.0402ZM53.84 17.0402C53.091 17.0402 52.48 17.6511 52.48 18.4002C52.48 19.1492 53.091 19.7602 53.84 19.7602C54.5891 19.7602 55.2 19.1492 55.2 18.4002C55.2 17.6511 54.5891 17.0402 53.84 17.0402ZM26.64 21.1202C25.891 21.1202 25.28 21.7311 25.28 22.4802C25.28 23.2292 25.891 23.8402 26.64 23.8402C27.3891 23.8402 28 23.2292 28 22.4802C28 21.7311 27.3891 21.1202 26.64 21.1202ZM53.84 21.1202C53.091 21.1202 52.48 21.7311 52.48 22.4802C52.48 23.2292 53.091 23.8402 53.84 23.8402C54.5891 23.8402 55.2 23.2292 55.2 22.4802C55.2 21.7311 54.5891 21.1202 53.84 21.1202ZM53.84 25.2002C53.091 25.2002 52.48 25.8111 52.48 26.5602C52.48 27.3092 53.091 27.9202 53.84 27.9202C54.5891 27.9202 55.2 27.3092 55.2 26.5602C55.2 25.8111 54.5891 25.2002 53.84 25.2002ZM25.28 27.9202V32.0002H22.56C17.3166 32.0002 13.04 36.2767 13.04 41.5202V46.9602H15.76V41.5202C15.76 37.7483 18.7882 34.7202 22.56 34.7202H25.28V38.8002L30.72 33.3602L25.28 27.9202ZM53.84 29.2802C53.091 29.2802 52.48 29.8911 52.48 30.6402C52.48 31.3892 53.091 32.0002 53.84 32.0002C54.5891 32.0002 55.2 31.3892 55.2 30.6402C55.2 29.8911 54.5891 29.2802 53.84 29.2802ZM53.84 33.3602C53.091 33.3602 52.48 33.9711 52.48 34.7202C52.48 35.4692 53.091 36.0802 53.84 36.0802C54.5891 36.0802 55.2 35.4692 55.2 34.7202C55.2 33.9711 54.5891 33.3602 53.84 33.3602ZM53.84 37.4402C53.091 37.4402 52.48 38.0511 52.48 38.8002C52.48 39.5492 53.091 40.1602 53.84 40.1602C54.5891 40.1602 55.2 39.5492 55.2 38.8002C55.2 38.0511 54.5891 37.4402 53.84 37.4402ZM26.64 41.5202C25.891 41.5202 25.28 42.1311 25.28 42.8802C25.28 43.6292 25.891 44.2402 26.64 44.2402C27.3891 44.2402 28 43.6292 28 42.8802C28 42.1311 27.3891 41.5202 26.64 41.5202ZM53.84 41.5202C53.091 41.5202 52.48 42.1311 52.48 42.8802C52.48 43.6292 53.091 44.2402 53.84 44.2402C54.5891 44.2402 55.2 43.6292 55.2 42.8802C55.2 42.1311 54.5891 41.5202 53.84 41.5202ZM26.64 45.6002C25.891 45.6002 25.28 46.2111 25.28 46.9602C25.28 47.7092 25.891 48.3202 26.64 48.3202C27.3891 48.3202 28 47.7092 28 46.9602C28 46.2111 27.3891 45.6002 26.64 45.6002ZM53.84 45.6002C53.091 45.6002 52.48 46.2111 52.48 46.9602C52.48 47.7092 53.091 48.3202 53.84 48.3202C54.5891 48.3202 55.2 47.7092 55.2 46.9602C55.2 46.2111 54.5891 45.6002 53.84 45.6002ZM26.64 49.6802C25.891 49.6802 25.28 50.2911 25.28 51.0402C25.28 51.7892 25.891 52.4002 26.64 52.4002C27.3891 52.4002 28 51.7892 28 51.0402C28 50.2911 27.3891 49.6802 26.64 49.6802ZM53.84 49.6802C53.091 49.6802 52.48 50.2911 52.48 51.0402C52.48 51.7892 53.091 52.4002 53.84 52.4002C54.5891 52.4002 55.2 51.7892 55.2 51.0402C55.2 50.2911 54.5891 49.6802 53.84 49.6802ZM26.64 53.7602C25.891 53.7602 25.28 54.3711 25.28 55.1202C25.28 55.8692 25.891 56.4802 26.64 56.4802C27.3891 56.4802 28 55.8692 28 55.1202C28 54.3711 27.3891 53.7602 26.64 53.7602ZM53.84 53.7602C53.091 53.7602 52.48 54.3711 52.48 55.1202C52.48 55.8692 53.091 56.4802 53.84 56.4802C54.5891 56.4802 55.2 55.8692 55.2 55.1202C55.2 54.3711 54.5891 53.7602 53.84 53.7602ZM33.44 57.8402C32.6909 57.8402 32.08 58.4511 32.08 59.2002C32.08 59.9492 32.6909 60.5602 33.44 60.5602C34.1891 60.5602 34.8 59.9492 34.8 59.2002C34.8 58.4511 34.1891 57.8402 33.44 57.8402ZM37.52 57.8402C36.771 57.8402 36.16 58.4511 36.16 59.2002C36.16 59.9492 36.771 60.5602 37.52 60.5602C38.2691 60.5602 38.88 59.9492 38.88 59.2002C38.88 58.4511 38.2691 57.8402 37.52 57.8402ZM41.6 57.8402C40.851 57.8402 40.24 58.4511 40.24 59.2002C40.24 59.9492 40.851 60.5602 41.6 60.5602C42.3491 60.5602 42.96 59.9492 42.96 59.2002C42.96 58.4511 42.3491 57.8402 41.6 57.8402ZM45.68 57.8402C44.931 57.8402 44.32 58.4511 44.32 59.2002C44.32 59.9492 44.931 60.5602 45.68 60.5602C46.4291 60.5602 47.04 59.9492 47.04 59.2002C47.04 58.4511 46.4291 57.8402 45.68 57.8402ZM49.76 57.8402C49.011 57.8402 48.4 58.4511 48.4 59.2002C48.4 59.9492 49.011 60.5602 49.76 60.5602C50.5092 60.5602 51.12 59.9492 51.12 59.2002C51.12 58.4511 50.5092 57.8402 49.76 57.8402ZM53.84 57.8402C53.091 57.8402 52.48 58.4511 52.48 59.2002C52.48 59.9492 53.091 60.5602 53.84 60.5602C54.5891 60.5602 55.2 59.9492 55.2 59.2002C55.2 58.4511 54.5891 57.8402 53.84 57.8402Z" fill="white"/>
</svg>
