<svg width="140" height="30" viewBox="0 0 140 30" fill="none" xmlns="http://www.w3.org/2000/svg">
<path d="M42.0378 20.0196C42.0378 17.5131 40.1711 16.733 38.0239 15.9027C36.3368 15.2629 35.0858 14.7283 35.0858 13.0543C35.0858 11.777 36.1594 10.7297 38.0239 10.7297C39.0626 10.7375 40.0794 11.0292 40.9642 11.5733L41.5514 10.4471C40.4489 9.8169 39.1973 9.49454 37.9275 9.51368C35.1362 9.51368 33.5455 11.0759 33.5455 13.0653C33.5455 15.4426 35.3093 16.2861 37.3534 17.0529C39.1435 17.7102 40.4713 18.3303 40.4713 19.9932C40.4713 21.5532 39.1173 22.548 37.0971 22.548C35.9367 22.5198 34.7989 22.2196 33.7756 21.6716L33.1884 22.8481C34.159 23.409 35.7431 23.7925 37.1322 23.7925C40.1733 23.7925 42.04 22.285 42.04 20.0108L42.0378 20.0196ZM56.0756 9.76126H54.439L50.6572 20.4271C50.4487 21.0293 50.2782 21.644 50.1468 22.2675H50.0942C49.9782 21.643 49.8164 21.0278 49.6099 20.4271L45.8261 9.76126H44.1894L49.3799 23.5383L47.3094 29.0421H48.8673L56.0756 9.76126ZM66.7108 20.013C66.7108 17.5065 64.8462 16.7265 62.699 15.8961C61.012 15.2563 59.7587 14.7217 59.7587 13.0477C59.7587 11.7704 60.8323 10.7231 62.699 10.7231C63.7369 10.7314 64.753 11.0231 65.6372 11.5667L66.2265 10.4405C65.1229 9.80606 63.869 9.47991 62.596 9.49615C59.8091 9.49615 58.225 11.0539 58.225 13.0477C58.225 15.425 59.9888 16.2686 62.0329 17.0354C63.823 17.6927 65.1529 18.3127 65.1529 19.9757C65.1529 21.5357 63.7967 22.5304 61.7788 22.5304C60.6176 22.5025 59.4791 22.2023 58.4551 21.654L57.8657 22.8569C58.8363 23.4178 60.4203 23.8012 61.8095 23.8012C64.8528 23.8012 66.7173 22.2938 66.7173 20.0196L66.7108 20.013ZM75.6282 23.5186V22.204C75.3556 22.2916 75.0708 22.3345 74.7846 22.3311C73.5599 22.3311 72.5104 21.6935 72.5104 20.1598V10.9181H75.6282V9.76126H72.5104V5.7802L71.0534 6.34329V9.76126H68.9061V10.9115H71.0534V20.2233C71.0534 22.548 72.5104 23.6741 74.559 23.6741C74.9227 23.6926 75.2864 23.6405 75.6304 23.5208L75.6282 23.5186ZM88.5397 15.2125C88.5397 11.5842 86.4188 9.51587 83.2243 9.51587C79.618 9.51587 77.3963 12.4036 77.3963 16.6476C77.3963 21.3254 79.8744 23.8034 83.8116 23.8034C85.5491 23.8034 87.1857 23.3937 88.1059 22.8591L87.5954 21.6825C86.719 22.1931 85.2423 22.5589 83.8708 22.5589C80.9567 22.5589 79.0659 20.8477 78.8621 17.4736L88.5222 16.0429C88.5486 15.7339 88.5486 15.4798 88.5486 15.2234L88.5397 15.2125ZM87.0827 15.1117L78.7744 16.3123C78.8533 12.9382 80.5141 10.7143 83.2243 10.7143C85.5249 10.7143 87.0565 12.1209 87.0827 15.1117ZM109.696 23.5449V13.8322C109.696 11.1744 107.83 9.51368 105.095 9.51368C103.075 9.51368 101.49 10.3572 100.647 11.2008C99.933 10.2805 98.4256 9.51368 96.3288 9.51368C94.7549 9.51502 93.1977 9.8363 91.7518 10.458V23.5449H93.2614V11.3279C94.2462 10.9408 95.2971 10.7495 96.3551 10.7647C98.476 10.7647 99.9834 11.8142 99.9834 13.5013V23.5449H101.49V12.1517C102.232 11.2753 103.407 10.7713 104.891 10.7713C106.782 10.7713 108.189 11.9216 108.189 13.9154V23.5558L109.696 23.5449ZM123.535 14.1652C123.535 10.7647 121.54 9.48738 118.243 9.48738C116.595 9.50037 114.963 9.82988 113.438 10.458L114.153 12.3751C115.356 11.8487 116.65 11.5621 117.963 11.5316C119.727 11.5316 120.876 12.1451 120.876 13.8848V14.7612C116.714 14.9802 112.619 15.6813 112.619 19.5178C112.619 22.2259 114.612 23.8341 118.577 23.8341C120.52 23.8341 122.538 23.3959 123.535 22.8656V14.1652ZM120.876 21.4503C120.439 21.654 119.393 21.8074 118.5 21.8074C116.378 21.8074 115.252 20.9135 115.252 19.4565C115.252 17.0026 118.066 16.7725 120.876 16.6081V21.4503ZM129.959 5.67503C129.943 5.24472 129.761 4.83724 129.451 4.53834C129.141 4.23944 128.727 4.07242 128.296 4.07242C127.866 4.07242 127.452 4.23944 127.142 4.53834C126.832 4.83724 126.651 5.24472 126.635 5.67503C126.651 6.10535 126.832 6.51282 127.142 6.81173C127.452 7.11063 127.866 7.27766 128.296 7.27766C128.727 7.27766 129.141 7.11063 129.451 6.81173C129.761 6.51282 129.943 6.10535 129.959 5.67503ZM129.703 23.5405V9.76126H126.882V23.5383L129.703 23.5405ZM140 9.58598C139.484 9.50638 138.962 9.47193 138.439 9.48301C136.395 9.48301 134.426 9.89272 133.098 10.4536V23.5405H135.865V12.1209C137.017 11.7264 138.256 11.6552 139.446 11.915L139.982 9.59037L140 9.58598Z" fill="black"/>
<path d="M14.7684 21.3013C14.6015 21.4248 14.4018 21.496 14.1945 21.5061C13.9871 21.5161 13.7815 21.4643 13.6036 21.3574C13.4256 21.2506 13.2834 21.0933 13.1948 20.9056C13.1062 20.7179 13.0753 20.5082 13.1059 20.3028C13.1366 20.0975 13.2274 19.9059 13.3669 19.7523C13.5065 19.5986 13.6885 19.4897 13.8899 19.4395C14.0912 19.3893 14.303 19.3998 14.4984 19.4699C14.6938 19.54 14.8639 19.6665 14.9874 19.8333C15.1514 20.0576 15.2203 20.3375 15.1792 20.6123C15.1383 20.8871 14.9906 21.1347 14.7684 21.3013Z" fill="#004985"/>
<path d="M17.218 20.9705C17.0846 21.0691 16.9249 21.126 16.7592 21.134C16.5934 21.1419 16.429 21.1004 16.2868 21.015C16.1446 20.9295 16.0309 20.8038 15.9601 20.6537C15.8893 20.5037 15.8646 20.336 15.8891 20.1718C15.9136 20.0078 15.9862 19.8545 16.0977 19.7317C16.2093 19.6088 16.3547 19.5218 16.5157 19.4816C16.6766 19.4414 16.8459 19.4498 17.0022 19.5058C17.1583 19.5617 17.2944 19.6628 17.3933 19.7961C17.5236 19.9758 17.5783 20.1995 17.5455 20.419C17.5127 20.6387 17.3951 20.8366 17.218 20.9705Z" fill="#004985"/>
<path d="M19.008 19.198C18.8746 19.2966 18.7149 19.3535 18.5491 19.3614C18.3834 19.3693 18.219 19.328 18.0768 19.2424C17.9346 19.157 17.8209 19.0313 17.7501 18.8812C17.6792 18.7311 17.6546 18.5634 17.679 18.3993C17.7036 18.2352 17.7762 18.0821 17.8877 17.9592C17.9993 17.8363 18.1447 17.7492 18.3056 17.7091C18.4666 17.6688 18.6359 17.6772 18.7921 17.7332C18.9484 17.7892 19.0844 17.8903 19.1833 18.0236C19.3098 18.2046 19.3621 18.4272 19.3296 18.6457C19.2969 18.8641 19.1818 19.0617 19.008 19.198Z" fill="#004985"/>
<path d="M11.9992 16.9193C11.8491 17.0388 11.6762 17.1262 11.491 17.1759C11.3058 17.2258 11.1124 17.2369 10.9227 17.2088C10.733 17.1806 10.5511 17.1137 10.3885 17.0123C10.2257 16.9109 10.0856 16.777 9.97681 16.6191C9.85473 16.4677 9.76472 16.293 9.71223 16.1057C9.65975 15.9183 9.6459 15.7223 9.67151 15.5295C9.69713 15.3367 9.76167 15.1511 9.86124 14.9839C9.9608 14.8169 10.0933 14.6717 10.2507 14.5573C10.4073 14.4383 10.5862 14.3518 10.7767 14.3029C10.9673 14.2542 11.1657 14.2438 11.3602 14.2729C11.5548 14.3018 11.7416 14.3695 11.9097 14.4718C12.0778 14.5741 12.2236 14.709 12.3387 14.8685C12.4557 15.0238 12.5399 15.2012 12.5863 15.3899C12.6327 15.5787 12.6402 15.7749 12.6084 15.9667C12.5767 16.1585 12.5063 16.3418 12.4016 16.5056C12.2968 16.6693 12.1599 16.81 11.9992 16.9193Z" fill="#004985"/>
<path d="M14.0234 14.014C13.8657 14.1406 13.6836 14.2333 13.4885 14.2866C13.2934 14.3398 13.0894 14.3523 12.8893 14.3234C12.6892 14.2943 12.497 14.2245 12.3251 14.1181C12.1531 14.0118 12.0048 13.8711 11.8894 13.7051C11.7581 13.5449 11.6609 13.3594 11.6041 13.1602C11.5473 12.961 11.532 12.7523 11.559 12.5469C11.5862 12.3415 11.6552 12.1439 11.7618 11.9662C11.8682 11.7886 12.0102 11.6347 12.1786 11.5141C12.3439 11.3883 12.5327 11.2969 12.7339 11.2452C12.9351 11.1937 13.1446 11.1828 13.35 11.2135C13.5554 11.244 13.7527 11.3156 13.93 11.4236C14.1074 11.5317 14.2614 11.6742 14.3828 11.8427C14.5061 12.0067 14.5947 12.194 14.6435 12.3933C14.6923 12.5925 14.7001 12.7996 14.6665 13.002C14.6329 13.2044 14.5586 13.3978 14.4481 13.5707C14.3375 13.7434 14.1931 13.8921 14.0234 14.0075V14.014Z" fill="#004985"/>
<path d="M12.5226 19.9275C12.3939 20.0297 12.2454 20.1043 12.0866 20.1467C11.9278 20.1891 11.762 20.1983 11.5994 20.1738C11.4369 20.1494 11.2811 20.0917 11.1418 20.0045C11.0025 19.9173 10.8826 19.8023 10.7895 19.6668C10.6868 19.5375 10.6111 19.3889 10.5672 19.2297C10.5233 19.0706 10.5119 18.9042 10.5338 18.7405C10.5556 18.5769 10.6103 18.4193 10.6946 18.2773C10.7788 18.1353 10.8909 18.0117 11.024 17.914C11.1582 17.8116 11.3116 17.7373 11.4749 17.6954C11.6384 17.6533 11.8085 17.6446 11.9755 17.6694C12.1424 17.6944 12.3025 17.7526 12.4466 17.8404C12.5906 17.9283 12.7156 18.0442 12.8141 18.1813C12.9136 18.3142 12.9852 18.4659 13.0246 18.6273C13.064 18.7885 13.0702 18.9562 13.0429 19.1199C13.0157 19.2838 12.9556 19.4404 12.8661 19.5803C12.7767 19.7202 12.6598 19.8406 12.5226 19.9341V19.9275Z" fill="#004985"/>
<path d="M19.3432 16.6739C19.2433 16.7482 19.1236 16.7913 18.9992 16.7975C18.8748 16.8037 18.7514 16.7729 18.6445 16.7089C18.5377 16.6449 18.4523 16.5505 18.3991 16.4379C18.3459 16.3253 18.3274 16.1994 18.3459 16.0763C18.3643 15.9531 18.419 15.8381 18.5029 15.746C18.5867 15.654 18.6961 15.5889 18.817 15.559C18.938 15.5292 19.065 15.5359 19.182 15.5784C19.2991 15.6208 19.401 15.6971 19.4747 15.7975C19.5661 15.9336 19.6032 16.099 19.5789 16.2612C19.5545 16.4233 19.4705 16.5706 19.3432 16.6739Z" fill="#004985"/>
<path d="M18.5392 14.5289C18.4559 14.5913 18.3559 14.6276 18.252 14.6331C18.148 14.6386 18.0447 14.6131 17.9552 14.5598C17.8657 14.5067 17.7941 14.428 17.7494 14.3341C17.7046 14.24 17.6888 14.1349 17.7038 14.0318C17.7188 13.9288 17.7642 13.8326 17.834 13.7554C17.9038 13.6781 17.9949 13.6233 18.0959 13.598C18.1969 13.5726 18.3031 13.5778 18.4012 13.6128C18.4992 13.6479 18.5846 13.7113 18.6466 13.7949C18.725 13.9081 18.7576 14.0468 18.7376 14.183C18.7177 14.3194 18.6468 14.443 18.5392 14.5289Z" fill="#004985"/>
<path d="M16.714 13.0609C16.6305 13.1227 16.5304 13.1584 16.4265 13.1634C16.3228 13.1684 16.2197 13.1425 16.1306 13.089C16.0415 13.0354 15.9702 12.9567 15.9258 12.8626C15.8815 12.7687 15.8659 12.6636 15.8813 12.5607C15.8965 12.4579 15.942 12.3619 16.0118 12.2849C16.0817 12.2079 16.1727 12.1533 16.2736 12.128C16.3745 12.1028 16.4805 12.108 16.5784 12.143C16.6763 12.178 16.7616 12.2412 16.8236 12.3248C16.9024 12.4383 16.9349 12.5778 16.9146 12.7145C16.8943 12.8513 16.8226 12.9752 16.714 13.0609Z" fill="#004985"/>
<path d="M16.2935 25.3284C16.137 25.3856 15.9704 25.4101 15.804 25.4006C15.6377 25.3911 15.475 25.3476 15.3261 25.2729C15.177 25.1983 15.0449 25.0939 14.9378 24.9663C14.8306 24.8387 14.7507 24.6905 14.7029 24.5308C14.6419 24.372 14.614 24.2026 14.6208 24.0327C14.6277 23.8627 14.669 23.6961 14.7424 23.5426C14.8159 23.3893 14.9197 23.2525 15.0478 23.1406C15.1758 23.0287 15.3254 22.9442 15.4872 22.892C15.6495 22.8349 15.8216 22.8108 15.9933 22.8215C16.165 22.8321 16.3329 22.877 16.4869 22.9536C16.6409 23.0302 16.778 23.137 16.8901 23.2675C17.0022 23.398 17.0869 23.5497 17.1393 23.7136C17.1947 23.8742 17.217 24.0445 17.2047 24.214C17.1924 24.3836 17.1458 24.5488 17.0678 24.6998C16.9896 24.8508 16.8818 24.9843 16.7506 25.0924C16.6193 25.2005 16.4676 25.2807 16.3044 25.3284H16.2935Z" fill="#004985"/>
<path d="M22.5312 18.1375C22.4079 18.1795 22.2749 18.184 22.149 18.1504C22.0232 18.1166 21.9101 18.0463 21.8244 17.9484C21.7385 17.8503 21.6838 17.729 21.667 17.5998C21.6503 17.4706 21.6723 17.3393 21.7304 17.2227C21.7884 17.106 21.8798 17.0093 21.9929 16.9447C22.106 16.8801 22.2358 16.8505 22.3657 16.8597C22.4956 16.869 22.6199 16.9167 22.7227 16.9967C22.8256 17.0768 22.9022 17.1855 22.9431 17.3092C22.9718 17.3907 22.9839 17.4769 22.9786 17.563C22.9733 17.6492 22.9509 17.7333 22.9124 17.8105C22.874 17.8878 22.8205 17.9566 22.755 18.0127C22.6895 18.0689 22.6133 18.1113 22.5312 18.1375Z" fill="#004985"/>
<path d="M19.6326 23.8144C19.436 23.8812 19.2238 23.8882 19.0232 23.8344C18.8226 23.7806 18.6424 23.6684 18.5055 23.5122C18.3686 23.3559 18.2812 23.1625 18.2544 22.9566C18.2274 22.7505 18.2623 22.5412 18.3544 22.355C18.4466 22.1689 18.5919 22.0143 18.7721 21.9107C18.9522 21.8072 19.1589 21.7595 19.3661 21.7736C19.5735 21.7877 19.7718 21.8629 19.9363 21.9899C20.1007 22.1168 20.2238 22.2897 20.2899 22.4866C20.3358 22.6168 20.3551 22.755 20.3468 22.8928C20.3385 23.0306 20.3026 23.1654 20.2413 23.2892C20.18 23.4129 20.0946 23.5232 19.9901 23.6133C19.8856 23.7036 19.764 23.7719 19.6326 23.8144Z" fill="#004985"/>
<path d="M21.7491 21.1063C21.5917 21.1586 21.4224 21.1631 21.2625 21.1193C21.1026 21.0756 20.9593 20.9853 20.8506 20.8601C20.7418 20.7349 20.6727 20.5803 20.6518 20.4158C20.6309 20.2514 20.6592 20.0844 20.733 19.9359C20.807 19.7875 20.9232 19.6643 21.0671 19.5819C21.2109 19.4994 21.376 19.4615 21.5414 19.4728C21.7068 19.4841 21.8651 19.5441 21.9965 19.6453C22.1279 19.7465 22.2262 19.8844 22.2793 20.0414C22.3147 20.1462 22.329 20.2569 22.3215 20.3671C22.314 20.4774 22.2847 20.5851 22.2354 20.684C22.1862 20.783 22.1178 20.8712 22.0344 20.9437C21.9509 21.0162 21.8539 21.0714 21.7491 21.1063Z" fill="#004985"/>
<path d="M12.3233 25.0041C12.141 25.0726 11.9466 25.1026 11.7522 25.0925C11.5577 25.0824 11.3674 25.0323 11.1933 24.9453C11.0191 24.8583 10.8647 24.7363 10.7398 24.587C10.6149 24.4377 10.5223 24.2641 10.4675 24.0773C10.3973 23.8933 10.3652 23.6969 10.3733 23.5001C10.3814 23.3031 10.4293 23.11 10.5145 22.9323C10.5995 22.7547 10.7198 22.5961 10.868 22.4664C11.0163 22.3367 11.1894 22.2384 11.3768 22.1777C11.5647 22.1119 11.7638 22.0844 11.9625 22.0966C12.1612 22.1088 12.3554 22.1607 12.5338 22.249C12.7123 22.3375 12.8711 22.4606 13.0014 22.6112C13.1315 22.7619 13.2302 22.937 13.2917 23.1265C13.3556 23.3127 13.3811 23.51 13.3666 23.7063C13.3521 23.9027 13.298 24.0941 13.2075 24.269C13.117 24.4439 12.9919 24.5986 12.84 24.7238C12.6881 24.849 12.5123 24.9422 12.3233 24.9975V25.0041Z" fill="#004985"/>
<path d="M9.08509 22.7473C8.87968 22.824 8.66071 22.8576 8.44177 22.8461C8.22283 22.8346 8.0086 22.7782 7.81237 22.6803C7.61615 22.5826 7.44213 22.4455 7.30112 22.2776C7.16011 22.1097 7.05512 21.9146 6.99268 21.7045C6.91387 21.4966 6.87809 21.2751 6.88749 21.053C6.89689 20.8311 6.95128 20.6132 7.04737 20.4129C7.14345 20.2125 7.27923 20.0337 7.44647 19.8875C7.6137 19.7411 7.80891 19.6303 8.02025 19.5616C8.23243 19.4874 8.45732 19.4565 8.68165 19.4707C8.90598 19.4848 9.1252 19.5438 9.32638 19.6441C9.52754 19.7443 9.70657 19.8839 9.85292 20.0545C9.99925 20.2251 10.1099 20.4233 10.1784 20.6374C10.2507 20.8477 10.2795 21.0704 10.2631 21.2921C10.2467 21.5139 10.1854 21.7299 10.083 21.9272C9.98051 22.1245 9.83905 22.299 9.66713 22.44C9.49522 22.581 9.29646 22.6855 9.0829 22.7473H9.08509Z" fill="#004985"/>
<path d="M7.54473 18.6327C7.3295 18.714 7.09976 18.7499 6.86997 18.7381C6.64019 18.7264 6.41532 18.6672 6.20951 18.5644C6.00371 18.4614 5.82144 18.3171 5.67416 18.1403C5.52687 17.9635 5.41778 17.7582 5.35373 17.5371C5.27146 17.3204 5.23406 17.0891 5.24379 16.8573C5.25353 16.6256 5.3102 16.3984 5.41037 16.1892C5.51054 15.98 5.65212 15.7934 5.82655 15.6406C6.00098 15.4877 6.20462 15.3719 6.42512 15.3001C6.64675 15.2219 6.88184 15.1891 7.11642 15.2035C7.35099 15.218 7.58027 15.2795 7.79061 15.3844C8.00094 15.4891 8.18803 15.6353 8.34077 15.8139C8.4935 15.9925 8.60876 16.2001 8.67967 16.4241C8.75363 16.6428 8.78261 16.874 8.76484 17.1042C8.74708 17.3343 8.68295 17.5584 8.5763 17.7632C8.46966 17.9678 8.32272 18.1488 8.1443 18.2952C7.9659 18.4417 7.75971 18.5504 7.53815 18.6151L7.54473 18.6327Z" fill="#004985"/>
<path d="M8.15375 14.2484C7.9306 14.3326 7.69249 14.3698 7.45431 14.3577C7.21613 14.3456 6.98301 14.2845 6.76952 14.1781C6.55605 14.0719 6.36682 13.9226 6.21367 13.7397C6.06052 13.5569 5.94676 13.3445 5.87948 13.1157C5.79379 12.8902 5.75482 12.6495 5.76495 12.4084C5.77506 12.1673 5.83406 11.9308 5.93834 11.7132C6.04263 11.4956 6.19005 11.3015 6.37163 11.1426C6.55322 10.9837 6.7652 10.8633 6.9947 10.7888C7.225 10.708 7.46914 10.6741 7.71275 10.6891C7.95636 10.7041 8.1945 10.7676 8.41317 10.876C8.63184 10.9844 8.82661 11.1356 8.986 11.3204C9.14539 11.5052 9.26619 11.72 9.34127 11.9523C9.41967 12.1803 9.45094 12.4219 9.43319 12.6625C9.41543 12.903 9.34902 13.1374 9.23798 13.3515C9.12695 13.5656 8.9736 13.7549 8.78722 13.9079C8.60084 14.0609 8.38534 14.1746 8.15375 14.2418V14.2484Z" fill="#004985"/>
<path d="M15.8969 10.2389C15.6658 10.3254 15.4194 10.3634 15.173 10.3505C14.9266 10.3376 14.6856 10.274 14.4647 10.1639C14.2439 10.0537 14.0482 9.89921 13.8898 9.71007C13.7313 9.52093 13.6135 9.30119 13.5437 9.06452C13.4553 8.83089 13.4151 8.58174 13.4257 8.33214C13.4364 8.08255 13.4975 7.83768 13.6053 7.61238C13.7133 7.38708 13.8658 7.18602 14.0537 7.02137C14.2415 6.8567 14.4609 6.73187 14.6985 6.65441C14.9374 6.5713 15.1906 6.5368 15.443 6.55296C15.6955 6.56911 15.9422 6.63559 16.1685 6.74848C16.3949 6.86137 16.5964 7.0184 16.7613 7.21032C16.9261 7.40225 17.0508 7.62518 17.1283 7.86604C17.209 8.10247 17.241 8.35281 17.2224 8.60196C17.2038 8.8511 17.1348 9.09387 17.0197 9.31564C16.9046 9.5374 16.7459 9.73355 16.5528 9.89222C16.3598 10.0509 16.1368 10.1688 15.8969 10.2389Z" fill="#004985"/>
<path d="M11.3701 11.0014C11.1427 11.0869 10.9 11.1246 10.6573 11.1121C10.4146 11.0997 10.177 11.0373 9.95954 10.929C9.74202 10.8206 9.54916 10.6686 9.39302 10.4824C9.23688 10.2962 9.1208 10.0798 9.05203 9.84671C8.96459 9.61654 8.92479 9.37102 8.93507 9.12501C8.94535 8.87901 9.00547 8.63765 9.11179 8.41558C9.21812 8.1935 9.36843 7.99534 9.55363 7.83309C9.73882 7.67083 9.95503 7.54787 10.1892 7.47166C10.4245 7.38962 10.6738 7.35552 10.9225 7.3714C11.1713 7.38726 11.4143 7.45278 11.6373 7.56408C11.8603 7.67536 12.0587 7.83018 12.2209 8.0194C12.3832 8.20861 12.5059 8.42838 12.5817 8.66576C12.6618 8.89842 12.6938 9.14493 12.6757 9.39032C12.6576 9.63571 12.5899 9.87488 12.4766 10.0933C12.3632 10.3117 12.2068 10.5048 12.0166 10.6609C11.8264 10.817 11.6064 10.9328 11.3701 11.0014Z" fill="#004985"/>
<path d="M22.5093 14.9934C22.386 15.0356 22.2528 15.0402 22.1269 15.0066C22.0009 14.9729 21.8877 14.9026 21.8018 14.8044C21.7159 14.7064 21.6612 14.5849 21.6445 14.4556C21.6279 14.3263 21.65 14.1949 21.7082 14.0782C21.7664 13.9615 21.8579 13.8647 21.9713 13.8002C22.0846 13.7357 22.2146 13.7064 22.3446 13.716C22.4747 13.7255 22.5989 13.7736 22.7016 13.8539C22.8042 13.9343 22.8808 14.0434 22.9212 14.1674C22.9496 14.2486 22.9614 14.3347 22.956 14.4205C22.9506 14.5064 22.9279 14.5903 22.8896 14.6673C22.8512 14.7443 22.7977 14.8128 22.7324 14.8688C22.6671 14.9248 22.5913 14.9672 22.5093 14.9934Z" fill="#004985"/>
<path d="M21.4948 12.6227C21.3716 12.6648 21.2385 12.6692 21.1126 12.6356C20.9868 12.6019 20.8739 12.5316 20.788 12.4335C20.7022 12.3356 20.6475 12.2142 20.6308 12.085C20.614 11.9558 20.6361 11.8246 20.6941 11.7079C20.7521 11.5913 20.8434 11.4945 20.9566 11.4298C21.0697 11.3652 21.1995 11.3357 21.3294 11.345C21.4594 11.3543 21.5836 11.402 21.6865 11.482C21.7892 11.562 21.8659 11.6708 21.9067 11.7945C21.9352 11.8758 21.947 11.9621 21.9416 12.0481C21.9362 12.1342 21.9136 12.2182 21.8753 12.2954C21.8369 12.3725 21.7834 12.4413 21.7181 12.4974C21.6528 12.5537 21.5769 12.5963 21.4948 12.6227Z" fill="#004985"/>
<path d="M19.7048 10.5938C19.5815 10.6352 19.4488 10.639 19.3234 10.6049C19.198 10.5708 19.0854 10.5003 19.0001 10.4023C18.9147 10.3042 18.8603 10.1831 18.8438 10.0542C18.8273 9.92525 18.8494 9.79432 18.9073 9.67793C18.9652 9.56154 19.0562 9.46494 19.169 9.40032C19.2818 9.3357 19.4112 9.30597 19.5409 9.31489C19.6706 9.32381 19.7947 9.37098 19.8976 9.45043C20.0005 9.52988 20.0775 9.63806 20.1188 9.76126C20.1469 9.84264 20.1584 9.9288 20.1526 10.0147C20.1469 10.1005 20.1242 10.1844 20.0855 10.2614C20.0469 10.3383 19.9934 10.4068 19.928 10.4627C19.8626 10.5187 19.7867 10.561 19.7048 10.5873V10.5938Z" fill="#004985"/>
<path d="M19.1022 6.94801C18.8174 6.83056 18.5588 6.6575 18.3415 6.43893C18.1244 6.22037 17.9529 5.96068 17.8372 5.67507C17.7215 5.38947 17.6639 5.08367 17.6678 4.77555C17.6717 4.46743 17.737 4.16318 17.8599 3.8806C17.98 3.59762 18.1547 3.34108 18.3741 3.1256C18.5933 2.91014 18.8528 2.73997 19.1379 2.62481C19.4229 2.50966 19.7278 2.45177 20.0353 2.45446C20.3427 2.45715 20.6466 2.52036 20.9295 2.64049C21.2125 2.76062 21.4691 2.93531 21.6846 3.15458C21.9 3.37385 22.0702 3.63342 22.1854 3.91845C22.3004 4.2035 22.3583 4.50843 22.3556 4.81584C22.353 5.12324 22.2898 5.42712 22.1696 5.71009C22.052 5.99477 21.8788 6.25314 21.6601 6.47005C21.4414 6.68696 21.1816 6.85807 20.896 6.97334C20.6103 7.08862 20.3045 7.14576 19.9966 7.14141C19.6886 7.13705 19.3845 7.07131 19.1022 6.94801Z" fill="#004985"/>
<path d="M2.08243 12.9864C1.83553 12.8893 1.61101 12.7428 1.4226 12.556C1.23417 12.3692 1.08582 12.146 0.986573 11.9C0.887329 11.6539 0.839284 11.3902 0.845372 11.1249C0.85146 10.8597 0.911554 10.5985 1.02198 10.3572C1.11973 10.1104 1.26596 9.88558 1.45203 9.69617C1.6381 9.50677 1.86024 9.35656 2.10533 9.25444C2.35042 9.15233 2.61348 9.10036 2.879 9.10161C3.1445 9.10285 3.40707 9.1573 3.65119 9.26171C3.90216 9.36333 4.13016 9.51436 4.32161 9.70583C4.51305 9.89731 4.66405 10.1253 4.76564 10.3763C4.86722 10.6273 4.91731 10.8961 4.91292 11.1669C4.90855 11.4376 4.84978 11.7047 4.74013 11.9523C4.63718 12.1977 4.48591 12.4198 4.2953 12.6055C4.1047 12.7912 3.87866 12.9366 3.63066 13.0332C3.38266 13.1297 3.11778 13.1752 2.85179 13.1672C2.58581 13.1592 2.32416 13.0977 2.08243 12.9864Z" fill="#004985"/>
<path d="M1.17763 17.5546C0.945638 17.4604 0.734705 17.321 0.55711 17.1444C0.379515 16.9678 0.238803 16.7578 0.143164 16.5263C0.0475245 16.2948 -0.00113389 16.0467 2.00536e-05 15.7962C0.001174 15.5458 0.0521172 15.2981 0.149886 15.0677C0.247654 14.8371 0.390295 14.6283 0.56951 14.4534C0.748724 14.2785 0.960934 14.141 1.19379 14.0488C1.42665 13.9567 1.6755 13.9118 1.92587 13.9167C2.17625 13.9216 2.42314 13.9763 2.65218 14.0776C2.88419 14.1718 3.09511 14.3112 3.27271 14.4878C3.4503 14.6644 3.59102 14.8745 3.68665 15.1059C3.78229 15.3374 3.83095 15.5855 3.8298 15.836C3.82865 16.0864 3.7777 16.3341 3.67993 16.5647C3.58216 16.7951 3.43952 17.004 3.26031 17.1788C3.08109 17.3538 2.86888 17.4913 2.63603 17.5834C2.40318 17.6755 2.15432 17.7205 1.90395 17.7155C1.65358 17.7106 1.40668 17.6559 1.17763 17.5546Z" fill="#004985"/>
<path d="M2.51194 21.8117C2.22943 21.6921 1.98879 21.4911 1.82046 21.2346C1.65213 20.978 1.56368 20.6773 1.56629 20.3704C1.56889 20.0637 1.66244 19.7645 1.8351 19.5108C2.00775 19.2571 2.25177 19.0603 2.53627 18.9454C2.82077 18.8304 3.13298 18.8024 3.4334 18.8649C3.73382 18.9274 4.00896 19.0776 4.22401 19.2965C4.43905 19.5154 4.58436 19.7931 4.64153 20.0946C4.6987 20.3961 4.66517 20.7078 4.54519 20.9901C4.46582 21.1777 4.35021 21.3479 4.20501 21.4907C4.05981 21.6336 3.88785 21.7464 3.69899 21.8227C3.51013 21.899 3.30806 21.9373 3.10438 21.9354C2.90069 21.9336 2.69937 21.8916 2.51194 21.8117Z" fill="#004985"/>
<path d="M5.14998 25.416C4.98989 25.3548 4.84413 25.2613 4.72183 25.1412C4.59952 25.0211 4.50328 24.8771 4.43913 24.7181C4.37498 24.5592 4.34429 24.3888 4.34898 24.2174C4.35367 24.046 4.39364 23.8776 4.4664 23.7223C4.52769 23.56 4.62132 23.4119 4.74158 23.2868C4.86184 23.1618 5.00624 23.0625 5.16603 22.9948C5.32582 22.9272 5.49767 22.8928 5.67116 22.8936C5.84466 22.8943 6.0162 22.9303 6.17538 22.9994C6.33866 23.0658 6.48693 23.1643 6.61135 23.2892C6.73577 23.414 6.83381 23.5627 6.89962 23.7262C6.96544 23.8898 6.9977 24.0649 6.99448 24.241C6.99126 24.4173 6.95263 24.5911 6.88088 24.7522C6.81338 24.9114 6.71434 25.0553 6.58973 25.1753C6.46511 25.2953 6.31748 25.3889 6.15575 25.4503C5.99403 25.5117 5.82155 25.5397 5.64869 25.5327C5.47584 25.5257 5.3062 25.4837 5.14998 25.4094V25.416Z" fill="#004985"/>
<path d="M9.08271 27.9598C8.85318 27.8619 8.6579 27.6981 8.5216 27.489C8.3853 27.2801 8.31413 27.0353 8.31711 26.7858C8.3201 26.5363 8.3971 26.2933 8.53836 26.0877C8.67962 25.882 8.87878 25.7229 9.11057 25.6306C9.34237 25.5382 9.59637 25.5168 9.84036 25.569C10.0844 25.6211 10.3073 25.7445 10.4811 25.9236C10.6548 26.1027 10.7715 26.3294 10.8163 26.5749C10.861 26.8204 10.8319 27.0736 10.7325 27.3024C10.5982 27.6061 10.3503 27.8451 10.0418 27.968C9.73336 28.0909 9.38902 28.0879 9.08271 27.9598Z" fill="#004985"/>
<path d="M18.5873 27.9137C18.3952 27.8334 18.2312 27.6978 18.1163 27.5241C18.0014 27.3504 17.9406 27.1466 17.9416 26.9384C17.9426 26.73 18.0055 26.5268 18.1222 26.3543C18.2388 26.1818 18.4041 26.0478 18.597 25.9694C18.7899 25.8909 19.0019 25.8714 19.2058 25.9136C19.4097 25.9557 19.5966 26.0573 19.7427 26.2058C19.8888 26.3542 19.9875 26.5426 20.0264 26.7472C20.0653 26.9519 20.0425 27.1634 19.9611 27.355C19.9087 27.4831 19.8312 27.5993 19.7332 27.6971C19.6353 27.7947 19.5188 27.8718 19.3907 27.9239C19.2625 27.9759 19.1252 28.0019 18.9868 28.0002C18.8485 27.9983 18.712 27.969 18.5851 27.9137H18.5873Z" fill="#004985"/>
<path d="M13.8264 28.88C13.6178 28.7913 13.4403 28.6429 13.3161 28.4533C13.1919 28.2638 13.1267 28.0416 13.1288 27.8151C13.1308 27.5884 13.2 27.3675 13.3276 27.1802C13.4552 26.9929 13.6354 26.8477 13.8455 26.7629C14.0556 26.678 14.2862 26.6573 14.5081 26.7036C14.7299 26.7498 14.9331 26.8606 15.0919 27.0223C15.2508 27.1839 15.3581 27.3891 15.4004 27.6116C15.4427 27.8343 15.4179 28.0645 15.3294 28.2731C15.272 28.4128 15.1873 28.5396 15.0802 28.6461C14.9731 28.7526 14.8457 28.8365 14.7057 28.8931C14.5657 28.9497 14.4157 28.9776 14.2647 28.9753C14.1137 28.9731 13.9647 28.9407 13.8264 28.88Z" fill="#004985"/>
<path d="M22.6891 25.0369C22.535 24.9724 22.4037 24.8635 22.3118 24.7242C22.2198 24.5848 22.1713 24.4211 22.1727 24.2542C22.174 24.0872 22.225 23.9243 22.3193 23.7864C22.4134 23.6485 22.5465 23.5417 22.7016 23.4797C22.8566 23.4177 23.0266 23.4032 23.19 23.4382C23.3532 23.4731 23.5025 23.5558 23.6186 23.6758C23.7347 23.7958 23.8126 23.9477 23.8421 24.112C23.8717 24.2764 23.8516 24.4458 23.7846 24.5987C23.742 24.7 23.6798 24.7917 23.6016 24.8687C23.5233 24.9457 23.4304 25.0064 23.3285 25.0471C23.2266 25.0879 23.1175 25.108 23.0078 25.1062C22.898 25.1045 22.7896 25.081 22.6891 25.0369Z" fill="#004985"/>
<path d="M13.9863 5.47128C13.7027 5.36265 13.4445 5.19675 13.2278 4.98392C13.0112 4.77109 12.8406 4.51589 12.7269 4.23425C12.6132 3.95261 12.5588 3.65055 12.5671 3.34695C12.5753 3.04333 12.646 2.74467 12.7747 2.46959C13.294 1.24482 14.5801 0.668586 15.7983 1.18785C16.0867 1.30534 16.3487 1.47937 16.5688 1.69968C16.7889 1.91999 16.9627 2.18213 17.0799 2.47064C17.1971 2.75917 17.2554 3.06822 17.2513 3.37961C17.2472 3.691 17.1807 3.99842 17.0559 4.28375C16.5367 5.50852 15.2111 5.98835 13.9885 5.46908L13.9863 5.47128Z" fill="#004985"/>
<path d="M8.7718 6.08694C8.49121 5.97923 8.23577 5.81493 8.0214 5.60427C7.80701 5.39361 7.63826 5.1411 7.52565 4.86243C7.41303 4.58377 7.35896 4.28492 7.36678 3.98446C7.3746 3.684 7.44416 3.38836 7.57113 3.11594C8.08601 1.90651 9.35899 1.33465 10.5706 1.84954C10.856 1.96619 11.1152 2.13887 11.3328 2.3574C11.5504 2.57592 11.722 2.83585 11.8374 3.12181C11.9528 3.40777 12.0097 3.71396 12.0048 4.0223C11.9998 4.33063 11.933 4.63484 11.8085 4.91695C11.2958 6.12639 9.98343 6.60183 8.7718 6.08694Z" fill="#004985"/>
<path d="M4.68329 8.99003C4.42127 8.89024 4.18264 8.73743 3.98238 8.54119C3.78211 8.34495 3.6245 8.10948 3.51941 7.84952C3.41431 7.58958 3.364 7.31073 3.37163 7.03044C3.37925 6.75015 3.44463 6.47445 3.56369 6.2206C4.04352 5.09004 5.23105 4.55763 6.36161 5.03745C6.62775 5.14646 6.86936 5.30766 7.07221 5.51154C7.27504 5.71543 7.43499 5.95789 7.54261 6.22458C7.65023 6.49129 7.70335 6.77685 7.69882 7.06441C7.69429 7.35198 7.63222 7.63572 7.51627 7.8989C7.03644 9.02728 5.81166 9.46986 4.68329 8.99442V8.99003Z" fill="#004985"/>
<path d="M25.0421 21.1918C24.9216 21.1421 24.8186 21.0576 24.7462 20.9492C24.6736 20.8407 24.6351 20.7132 24.6354 20.5828C24.6357 20.4524 24.6746 20.325 24.7476 20.2168C24.8204 20.1086 24.9237 20.0246 25.0445 19.9754C25.1653 19.9261 25.2979 19.9139 25.4256 19.9404C25.5533 19.9667 25.6703 20.0305 25.7617 20.1235C25.853 20.2166 25.9147 20.3348 25.9388 20.4629C25.9627 20.5911 25.9481 20.7235 25.8967 20.8434C25.8643 20.923 25.8164 20.9955 25.7557 21.0563C25.6949 21.1172 25.6226 21.1653 25.5429 21.1978C25.4632 21.2303 25.3779 21.2464 25.2919 21.2454C25.2059 21.2443 25.121 21.2261 25.0421 21.1918Z" fill="#004985"/>
<path d="M26.1201 16.9609C25.9993 16.9112 25.896 16.8266 25.8236 16.7179C25.7511 16.6092 25.7126 16.4814 25.713 16.3508C25.7135 16.2202 25.7529 16.0927 25.8261 15.9845C25.8994 15.8763 26.0032 15.7925 26.1244 15.7435C26.2455 15.6947 26.3784 15.683 26.5062 15.71C26.634 15.737 26.7509 15.8015 26.8419 15.8952C26.9329 15.9889 26.9938 16.1076 27.0171 16.2362C27.0403 16.3647 27.0248 16.4972 26.9723 16.6169C26.9399 16.6967 26.8917 16.7692 26.8306 16.8299C26.7696 16.8907 26.6969 16.9385 26.6169 16.9706C26.537 17.0028 26.4515 17.0184 26.3653 17.0168C26.2792 17.0151 26.1943 16.996 26.1156 16.9609H26.1201Z" fill="#004985"/>
<path d="M24.0716 9.04918C23.9513 8.9988 23.8487 8.9138 23.7769 8.80497C23.7051 8.69615 23.6673 8.56842 23.6682 8.43804C23.6692 8.30766 23.709 8.18051 23.7824 8.07276C23.8558 7.96502 23.9596 7.88154 24.0806 7.83297C24.2016 7.78438 24.3343 7.77288 24.4619 7.79992C24.5894 7.82697 24.7061 7.89134 24.7969 7.98484C24.8878 8.07835 24.9488 8.19677 24.9722 8.32503C24.9956 8.45331 24.9803 8.58564 24.9282 8.70519C24.8958 8.78498 24.8476 8.85741 24.7865 8.91817C24.7255 8.97894 24.6528 9.0268 24.5729 9.05889C24.4929 9.09099 24.4074 9.10668 24.3213 9.105C24.2351 9.10334 24.1502 9.08435 24.0716 9.04918Z" fill="#004985"/>
<path d="M25.6972 12.844C25.5767 12.7941 25.4737 12.7095 25.4014 12.6009C25.3291 12.4923 25.2907 12.3646 25.2912 12.2342C25.2917 12.1037 25.331 11.9764 25.4041 11.8683C25.4772 11.7603 25.5808 11.6764 25.7017 11.6274C25.8226 11.5785 25.9554 11.5666 26.0831 11.5933C26.2108 11.6199 26.3276 11.684 26.4187 11.7774C26.5099 11.8707 26.5713 11.9891 26.5949 12.1173C26.6185 12.2456 26.6035 12.3781 26.5516 12.4978C26.5197 12.5778 26.4718 12.6504 26.4111 12.7113C26.3503 12.7723 26.2779 12.8204 26.1981 12.8527C26.1183 12.8851 26.0328 12.9009 25.9468 12.8994C25.8607 12.8979 25.7758 12.8791 25.6972 12.844Z" fill="#004985"/>
</svg>
