<svg width="16" height="15" viewBox="0 0 16 15" fill="none" xmlns="http://www.w3.org/2000/svg">
<path d="M7.99999 0C3.85775 0 0.5 3.35775 0.5 7.49999C0.5 11.6422 3.85775 15 7.99999 15C12.1422 15 15.5 11.6422 15.5 7.49999C15.5 3.35775 12.1422 0 7.99999 0ZM7.99999 1.5C8.98999 1.5 10.0775 3.774 10.2432 6.74775L5.76574 6.75674C5.93074 3.783 7.00999 1.5 7.99999 1.5ZM5.35174 2.10225C4.70674 3.357 4.36174 5.0205 4.27849 6.7515L2.04351 6.74475C2.26701 4.701 3.64324 2.9865 5.35174 2.10225ZM10.652 2.10601C12.3605 2.99026 13.7015 4.65675 13.9602 6.75674L11.726 6.74999C11.6555 4.94999 11.2572 3.36751 10.652 2.10601ZM2.04799 8.25299L4.28224 8.23424C4.36549 9.96524 4.71274 11.6572 5.35474 12.8985C3.56074 11.9992 2.30599 10.239 2.04799 8.25299ZM5.75375 8.25898L10.2312 8.24923C10.0662 11.2222 8.98999 13.5 7.99999 13.5C7.00999 13.5 5.91875 11.2327 5.75375 8.25898ZM11.7297 8.2515L13.9542 8.24475C13.6962 10.2315 12.4422 12.006 10.649 12.8902C11.315 11.5132 11.6465 9.9825 11.7297 8.2515Z" fill="white"/>
</svg>
