<svg width="64" height="82" viewBox="0 0 64 82" fill="none" xmlns="http://www.w3.org/2000/svg">
<path fill-rule="evenodd" clip-rule="evenodd" d="M14.6235 43.8705V47.0119L11.4822 50.0449V46.9036L14.6235 43.8705ZM16.5733 58.9273C16.5733 56.6526 17.1149 55.5693 18.3065 54.2695L21.4478 60.8771C20.9062 62.177 19.9313 63.1519 18.8481 63.1519C17.3316 63.1519 16.5733 61.4188 16.5733 58.9273ZM21.8811 61.852L22.856 63.9102V64.0185H24.1559L22.531 60.7688C23.181 59.0357 23.6143 56.111 23.6143 53.2946H22.7477C22.7477 55.786 22.531 57.3025 21.9894 59.6856L18.6314 52.753C18.5595 52.5372 18.461 52.2789 18.3513 51.9911L18.3513 51.9911L18.3513 51.9911L18.3512 51.9909C17.9652 50.9786 17.4399 49.6008 17.4399 48.4201C17.4399 46.5786 17.9815 45.2787 19.2814 45.2787C20.148 45.2787 21.0145 45.8203 21.4478 46.1453V44.8454C21.1229 44.5205 20.3646 44.0872 19.1731 44.0872C17.1149 44.0872 16.3567 45.8203 16.3567 48.3118C16.3567 49.8283 17.2233 51.9947 17.8732 53.2946C16.5733 54.5944 15.4901 56.111 15.4901 58.9273C15.4901 62.2853 16.465 64.2351 18.7398 64.2351C20.0396 64.2351 21.2312 63.1519 21.8811 61.852ZM4.11625 47.4452H5.09115C6.60766 47.4452 6.93263 48.8534 6.93263 53.7279C6.93263 58.9273 6.49934 60.9855 5.3078 60.9855H4.11625V47.4452ZM1.08322 63.9102H4.76618C8.77411 63.9102 10.074 61.2021 10.074 53.7279C10.074 47.0119 9.2074 44.4122 4.44122 44.4122H1.08322V63.9102ZM11.3738 50.4782H14.2985V63.9102H11.3738V50.4782ZM29.0304 47.5535V63.9102H25.9974V47.5535H23.0727V44.4122H31.9551V47.5535H29.0304ZM34.4519 51.9379C34.89 51.8246 35.4884 51.6698 35.8547 51.6698C36.0713 51.6698 36.3963 51.6698 36.6129 51.8864V49.1783C36.5046 49.07 36.0713 48.9617 35.7464 48.9617C33.872 48.9617 32.2408 49.6104 31.6246 49.8554L31.6246 49.8555L31.6245 49.8555C31.5286 49.8936 31.4573 49.922 31.4135 49.9366V63.9102H34.2299V51.9947C34.2968 51.978 34.3715 51.9587 34.4516 51.9379L34.4519 51.9379ZM42.1374 56.7609H41.5958C40.4042 56.7609 39.7543 57.4108 39.7543 59.3606C39.7543 61.3104 40.2959 62.0687 41.0542 62.0687C41.4874 62.0687 42.0291 61.852 42.2457 61.7437V56.7609H42.1374ZM40.6209 64.3435C37.9128 64.3435 36.7213 62.3937 36.7213 59.3606C36.7213 56.111 38.6711 54.5945 40.7292 54.5945H42.1374V53.7279C42.1374 52.5363 41.8124 51.4531 40.4042 51.4531C39.1044 51.4531 37.8045 52.2114 37.5878 52.428V49.8283C38.2378 49.5033 39.7543 48.9617 41.1625 48.9617C43.3289 48.9617 44.9538 50.1532 44.9538 53.7279V63.4769C44.8684 63.4982 44.7494 63.5448 44.5935 63.6058C43.9579 63.8545 42.7084 64.3435 40.6209 64.3435ZM50.2616 51.5614C50.8032 51.5614 51.2365 51.7781 51.4531 51.8864V61.5271C51.3448 61.6354 50.8032 61.8521 50.2616 61.8521C49.2867 61.8521 48.9617 60.1189 48.9617 56.3276C48.9617 52.9696 49.2867 51.5614 50.2616 51.5614ZM45.9287 56.3276C45.9287 61.8521 47.0119 64.3435 50.1532 64.3435C52.103 64.3435 53.8362 63.6935 54.2695 63.3686V44.5205H51.3448V49.72C51.321 49.708 51.2893 49.6909 51.2503 49.6698C50.9348 49.499 50.1424 49.07 49.1783 49.07C47.0119 49.07 45.9287 51.6698 45.9287 56.3276ZM59.3606 51.3448C58.4941 51.3448 58.2774 52.428 58.2774 55.1361H60.5522C60.4439 52.9696 60.1189 51.3448 59.3606 51.3448ZM58.1691 57.4108C58.1691 60.0106 58.6024 61.7437 60.5522 61.7437C61.6354 61.7437 62.502 60.9855 62.827 60.5522V63.3686C62.502 63.6935 61.2021 64.3435 59.5773 64.3435C56.2193 64.3435 55.2444 61.6354 55.2444 56.3276C55.2444 51.5614 56.4359 49.07 59.2523 49.07C61.9604 49.07 63.2602 51.9947 63.2602 56.3276V57.4108H58.1691ZM0.974901 73.7675C0.974901 71.8177 1.40819 70.7345 2.49141 70.7345C3.46631 70.7345 4.00793 72.0343 3.8996 73.7675H0.974901ZM2.81638 77.8837C1.40819 77.8837 0.974901 76.6922 0.974901 74.4174H4.8745V74.0925C4.8745 71.4927 4.11625 69.9762 2.49141 69.9762C0.758256 69.9762 0 71.3844 0 74.0925C0 77.2338 0.433289 78.642 2.59974 78.642C3.60593 78.642 4.33173 78.2681 4.6035 78.1282C4.62431 78.1174 4.64245 78.1081 4.65786 78.1004V77.2338C4.54954 77.3421 3.79128 77.8837 2.81638 77.8837ZM10.6156 78.4254V73.3342C10.6156 71.4927 10.074 70.8428 9.09907 70.8428C8.66578 70.8428 7.90753 70.9511 7.69088 71.1678V78.5337H6.60766V70.6262C6.71598 70.5178 7.90753 70.0845 9.09907 70.0845C10.5073 70.0845 11.5905 70.9511 11.5905 72.7926V78.5337H10.6156V78.4254ZM15.9234 70.7345C16.6816 70.7345 17.2232 70.9511 17.3316 71.0594V77.2338C17.3002 77.2338 17.2232 77.2702 17.114 77.3219C16.8464 77.4486 16.3849 77.6671 15.9234 77.6671C14.7318 77.6671 14.2985 76.3672 14.2985 74.0925C14.2985 71.8177 14.7318 70.7345 15.9234 70.7345ZM13.6486 81.4584C13.9736 81.675 14.8402 82 15.8151 82C17.5482 82 18.3065 81.0251 18.1981 79.0753V70.5178C17.9815 70.4095 16.8983 69.9762 15.9234 69.9762C14.0819 69.9762 13.2153 71.3844 13.2153 74.0925C13.2153 77.0172 13.8653 78.4254 15.7067 78.4254C16.3548 78.4254 16.9237 78.1089 17.2107 77.9492C17.2594 77.9221 17.3001 77.8995 17.3316 77.8837V78.8587C17.3316 80.5918 16.8983 81.2417 15.5984 81.2417C14.8402 81.2417 13.9736 80.8084 13.6486 80.5918V81.4584ZM21.4478 70.1929H20.4729V78.4254H21.4478V70.1929ZM27.5139 73.3342V78.4254V78.5337H28.5971V72.7926C28.5971 70.9511 27.6222 70.0845 26.1057 70.0845C24.9141 70.0845 23.7226 70.5178 23.6143 70.6262V78.5337H24.5892V71.1678C24.8058 70.9511 25.5641 70.8428 25.9974 70.8428C26.9723 70.8428 27.5139 71.4927 27.5139 73.3342ZM32.7133 70.7345C31.6301 70.7345 31.1968 71.8177 31.1968 73.7675H34.1215C34.2299 72.0343 33.7966 70.7345 32.7133 70.7345ZM31.3051 74.4174C31.3051 76.6922 31.7384 77.8837 33.1466 77.8837C34.1215 77.8837 34.8798 77.3421 34.9881 77.2338V78.1004C34.9727 78.1081 34.9546 78.1174 34.9337 78.1282C34.662 78.2681 33.9362 78.642 32.93 78.642C30.7635 78.642 30.3302 77.2338 30.3302 74.0925C30.3302 71.3844 31.0885 69.9762 32.8217 69.9762C34.4465 69.9762 35.2048 71.4927 35.2048 74.0925V74.4174H31.3051ZM37.4795 73.7675C37.4795 71.8177 37.9128 70.7345 38.996 70.7345C40.0793 70.7345 40.5125 72.0343 40.4042 73.7675H37.4795ZM39.4293 77.8837C38.0211 77.8837 37.5878 76.6922 37.5878 74.4174H41.4874V74.0925C41.4874 71.4927 40.7292 69.9762 39.1044 69.9762C37.3712 69.9762 36.6129 71.3844 36.6129 74.0925C36.6129 77.2338 37.0462 78.642 39.2127 78.642C40.2189 78.642 40.9447 78.2681 41.2164 78.1282C41.2372 78.1174 41.2554 78.1081 41.2708 78.1004V77.2338C41.1625 77.3421 40.4042 77.8837 39.4293 77.8837ZM45.712 70.8428C45.0621 70.8428 44.4122 71.0594 44.1955 71.1678V78.4254H43.2206V70.6261C43.4373 70.5178 44.5205 70.0845 45.712 70.0845H46.1453V70.8428H45.712ZM47.5535 70.1929H48.5284V78.4254H47.5535V70.1929ZM54.4861 78.4254V73.3342C54.4861 71.4927 53.9445 70.8428 52.9696 70.8428C52.5363 70.8428 51.7781 70.9511 51.5614 71.1678V78.5337H50.5865V70.6262C50.6948 70.5178 51.8864 70.0845 53.0779 70.0845C54.4861 70.0845 55.5694 70.9511 55.5694 72.7926V78.5337H54.4861V78.4254ZM59.9022 70.7345C60.6605 70.7345 61.2021 70.9511 61.3104 71.0594V77.2338C61.279 77.2338 61.2021 77.2702 61.0929 77.3219C60.8253 77.4486 60.3638 77.6671 59.9022 77.6671C58.7107 77.6671 58.2774 76.3672 58.2774 74.0925C58.2774 71.8177 58.7107 70.7345 59.9022 70.7345ZM57.5191 81.4584C57.8441 81.675 58.7107 82 59.6856 82C61.4187 82 62.2853 81.0251 62.0687 79.0753V70.5178C61.852 70.4095 60.7688 69.9762 59.7939 69.9762C57.9524 69.9762 57.0859 71.3844 57.0859 74.0925C57.0859 77.0172 57.7358 78.4254 59.5773 78.4254C60.2253 78.4254 60.7942 78.1089 61.0812 77.9492C61.13 77.9221 61.1706 77.8995 61.2021 77.8837V78.8587C61.2021 80.5918 60.7688 81.2417 59.4689 81.2417C58.7107 81.2417 57.8441 80.8084 57.5191 80.5918V81.4584Z" fill="white"/>
<path fill-rule="evenodd" clip-rule="evenodd" d="M24.0476 25.9974V33.5799L16.3567 40.8375V33.255L24.0476 25.9974Z" fill="#B2071E"/>
<path fill-rule="evenodd" clip-rule="evenodd" d="M32.7133 0V12.3487L20.2563 24.2642V11.8071L32.7133 0Z" fill="#B2071E"/>
<path fill-rule="evenodd" clip-rule="evenodd" d="M48.4201 3.68296V21.4478L30.5469 38.4544V20.6896L48.4201 3.68296Z" fill="#B2071E"/>
</svg>
